<svg width="20" height="16" viewBox="0 0 20 16" fill="none" xmlns="http://www.w3.org/2000/svg">
<path d="M17.8825 0.881336L17.1465 0.145393C16.9385 -0.0625975 16.5545 -0.0305884 16.3145 0.257357L13.7543 2.80132C12.6023 2.30538 11.3384 2.06538 10.0103 2.06538C6.05822 2.08132 2.63444 4.38529 0.986327 7.69749C0.8903 7.90549 0.8903 8.16142 0.986327 8.3374C1.75426 9.90543 2.90633 11.2015 4.34633 12.1774L2.25034 14.3054C2.01034 14.5454 1.97833 14.9293 2.13838 15.1374L2.87432 15.8733C3.08231 16.0813 3.4663 16.0493 3.7063 15.7613L17.7542 1.71345C18.0582 1.47358 18.0902 1.08962 17.8822 0.881611L17.8825 0.881336ZM10.8583 5.71322C10.5863 5.6492 10.2984 5.56925 10.0264 5.56925C8.66631 5.56925 7.57842 6.65727 7.57842 8.01718C7.57842 8.28919 7.64244 8.57714 7.72239 8.84916L6.65028 9.90519C6.33032 9.34524 6.15433 8.72114 6.15433 8.01722C6.15433 5.88924 7.86636 4.17722 9.99434 4.17722C10.6984 4.17722 11.3224 4.3532 11.8823 4.67316L10.8583 5.71322Z" fill="#666666" fill-opacity="0.8"/>
<path d="M19.0344 7.69743C18.4745 6.57738 17.7384 5.56945 16.8265 4.75342L13.8504 7.69743V8.01738C13.8504 10.1454 12.1384 11.8574 10.0104 11.8574H9.69047L7.80249 13.7454C8.50655 13.8893 9.24249 13.9854 9.9625 13.9854C13.9146 13.9854 17.3384 11.6814 18.9865 8.35325C19.1305 8.12918 19.1305 7.90527 19.0345 7.69726L19.0344 7.69743Z" fill="#666666" fill-opacity="0.8"/>
</svg>
