<svg width="38" height="40" viewBox="0 0 38 40" fill="none" xmlns="http://www.w3.org/2000/svg">
<path d="M22.629 4.87137C22.629 6.42897 21.3641 7.69162 19.8035 7.69162H9.95731C8.39688 7.69162 7.13184 6.42897 7.13184 4.87137V2.82026C7.13184 1.26265 8.39688 0 9.95731 0H19.8035C21.364 0 22.629 1.26265 22.629 2.82026V4.87137ZM20.0604 2.82026C20.0604 2.67863 19.9453 2.56385 19.8035 2.56385H9.95731C9.9236 2.56381 9.89023 2.57042 9.85908 2.58329C9.82793 2.59616 9.79962 2.61503 9.77577 2.63885C9.75192 2.66266 9.73299 2.69093 9.72007 2.72206C9.70715 2.75319 9.70049 2.78655 9.70047 2.82026V4.87137C9.70047 5.01299 9.81543 5.12778 9.95731 5.12778H19.8035C19.8372 5.12781 19.8706 5.12121 19.9018 5.10834C19.9329 5.09547 19.9612 5.07659 19.9851 5.05278C20.0089 5.02897 20.0279 5.00069 20.0408 4.96956C20.0537 4.93844 20.0604 4.90507 20.0604 4.87137V2.82026ZM15.3513 20.8528H24.5126V23.4167H15.3513V20.8528ZM15.3513 13.1612H24.5126V15.725H15.3513V13.1612ZM15.3513 28.6299H19.6323V31.1938H15.3513V28.6299ZM29.5837 40C25.0984 40 21.4493 36.3579 21.4493 31.8811C21.4493 27.4044 25.0984 23.7622 29.5837 23.7622C34.069 23.7622 37.7182 27.4043 37.7182 31.8811C37.7182 36.3579 34.069 40 29.5837 40ZM29.5837 26.2009C26.4457 26.2009 23.8927 28.749 23.8927 31.881C23.8927 35.0131 26.4457 37.5612 29.5837 37.5612C32.7218 37.5612 35.2747 35.0131 35.2747 31.881C35.2747 28.749 32.7218 26.2009 29.5837 26.2009ZM29.4786 17.8616H26.91V5.60727C26.91 5.35812 26.6671 5.12778 26.437 5.12778H24.8551V2.56385H26.437C28.0916 2.56385 29.4786 3.93556 29.4786 5.60727V17.8616ZM26.91 19.7418H29.4787V21.9638H26.91V19.7418Z" fill="#F7BC35"/>
<path d="M20.146 37.8599H3.2818C1.62778 37.8599 0.282227 36.5039 0.282227 34.8489V5.60738C0.282227 3.93576 1.62778 2.56396 3.2818 2.56396H5.16257V5.12781H3.2818C3.05223 5.12781 2.85086 5.35815 2.85086 5.6073V34.8489C2.85086 35.0901 3.04419 35.296 3.2818 35.296H20.1461L20.146 37.8599ZM27.9993 34.4776L25.6754 32.1161L27.5062 30.3157L28.9112 31.7398L31.7303 28.8579L33.5679 30.6489L29.8334 34.4742C29.5933 34.7198 28.7644 35.2106 27.9993 34.4776Z" fill="#F7BC35"/>
<path d="M7.14222 32.4081L4.64795 29.6965L6.54094 27.9651L8.08897 29.6505L11.7685 25.6484L13.661 27.3821L9.03496 32.4082C8.79171 32.6728 7.89897 33.1165 7.14222 32.4081ZM7.14222 24.7164L4.64795 22.005L6.54094 20.2735L8.08897 21.959L11.7685 17.9569L13.661 19.6905L9.03496 24.7166C8.79171 24.9811 7.89897 25.4249 7.14222 24.7164ZM7.14222 16.9393L4.64795 14.2278L6.54094 12.4964L8.08897 14.1818L11.7685 10.1797L13.661 11.9134L9.03496 16.9394C8.79171 17.2041 7.89897 17.6478 7.14222 16.9393Z" fill="#F7BC35"/>
</svg>
