<svg width="30" height="40" viewBox="0 0 30 40" fill="none" xmlns="http://www.w3.org/2000/svg">
<path d="M14.9346 14.9033C11.9785 14.9033 9.57275 17.3083 9.57275 20.2644C9.57275 23.2205 11.9785 25.6254 14.9346 25.6254C17.8907 25.6254 20.2957 23.2205 20.2957 20.2644C20.2957 17.3083 17.8907 14.9033 14.9346 14.9033ZM14.9346 23.2427C13.2921 23.2427 11.9554 21.9068 11.9554 20.2644C11.9554 18.6219 13.2921 17.286 14.9346 17.286C16.5763 17.286 17.913 18.6219 17.913 20.2644C17.913 21.9068 16.5763 23.2427 14.9346 23.2427Z" fill="#F7BC35"/>
<path d="M26.0056 14.12C24.0017 14.12 22.3712 15.7506 22.3712 17.7553V20.1539C22.3712 24.2187 19.0648 27.5251 15.0007 27.5251C10.9358 27.5251 7.62866 24.2187 7.62866 20.1539V17.7553C7.62866 15.7507 5.99811 14.12 3.99347 14.12C1.98962 14.12 0.359863 15.7506 0.359863 17.7553V20.1094C0.359863 24.6222 2.45822 28.8944 6.00446 31.6607V38.8088C6.00446 39.4664 6.53739 40.0001 7.19581 40.0001H22.6666C23.3243 40.0001 23.858 39.4664 23.858 38.8088V31.7298C27.49 28.9325 29.64 24.5809 29.64 19.9641V17.7553C29.64 15.7507 28.0102 14.12 26.0056 14.12ZM21.4753 31.1278V37.6174H8.38715V31.0634C8.38715 30.679 8.20051 30.3176 7.88758 30.0937C4.66539 27.7944 2.74256 24.0623 2.74256 20.1094V17.7553C2.74256 17.0643 3.30328 16.5027 3.99347 16.5027C4.68445 16.5027 5.24597 17.0642 5.24597 17.7553V20.1539C5.24597 25.5324 9.62139 29.9078 15.0007 29.9078C20.3784 29.9078 24.7539 25.5324 24.7539 20.1539V17.7553C24.7539 17.0643 25.3154 16.5027 26.0064 16.5027C26.6966 16.5027 27.2573 17.0642 27.2573 17.7553V19.9641C27.2573 24.017 25.2844 27.8261 21.9804 30.154C21.8243 30.2639 21.6969 30.4098 21.609 30.5792C21.5211 30.7487 21.4752 30.9368 21.4753 31.1278ZM10.306 8.94561L10.1225 12.4783C10.0782 13.348 10.9508 13.9663 11.7523 13.6467L14.9999 12.356L18.2475 13.6467C19.0504 13.9651 19.9216 13.3487 19.8773 12.4783L19.6938 8.94561L21.8859 6.28255C22.4316 5.62191 22.1186 4.61181 21.2886 4.37878L17.9012 3.4265L15.9943 0.534706C15.525 -0.178513 14.4745 -0.177957 14.0055 0.534706L12.0986 3.4265L8.7112 4.37878C7.87988 4.61221 7.56917 5.6231 8.11394 6.28255L10.306 8.94561ZM13.8435 5.10955L14.9999 3.3551L16.1563 5.10955C16.3141 5.34886 16.553 5.52316 16.829 5.60039L18.8861 6.17859L17.5605 7.78849C17.3715 8.01817 17.2751 8.31026 17.2905 8.60735L17.4017 10.747L15.4399 9.96707C15.1573 9.85481 14.8425 9.85481 14.5599 9.96707L12.5982 10.747L12.7094 8.60735C12.7244 8.30951 12.6283 8.01803 12.4393 7.78849L11.1137 6.17859L13.1708 5.60039C13.4472 5.52335 13.6855 5.34854 13.8435 5.10955ZM5.84045 11.5511C6.30571 12.0163 7.05999 12.0163 7.52525 11.5511C7.99051 11.0859 7.99051 10.3315 7.52525 9.86628L3.04508 5.38611C2.5799 4.92092 1.82554 4.92092 1.36028 5.38611C0.895016 5.85129 0.895016 6.60565 1.36028 7.07091L5.84045 11.5511ZM24.4394 11.5511L28.9196 7.07091C29.3849 6.60573 29.3849 5.85137 28.9196 5.38611C28.4544 4.92092 27.7001 4.92092 27.2348 5.38611L22.7546 9.86628C22.2894 10.3315 22.2894 11.0858 22.7546 11.5511C23.2199 12.0163 23.9742 12.0163 24.4394 11.5511Z" fill="#F7BC35"/>
</svg>
