<svg width="40" height="40" viewBox="0 0 40 40" fill="none" xmlns="http://www.w3.org/2000/svg">
<g clip-path="url(#clip0_155_262)">
<path d="M36.875 27.5C36.875 23.6205 34.5182 20.2878 31.152 18.8625C30.3574 18.5261 29.9859 17.6091 30.3224 16.8145C30.6588 16.0198 31.5758 15.6484 32.3704 15.9848C36.8514 17.8821 40 22.3216 40 27.5C40 29.688 39.4183 31.7259 38.4384 33.4989L39.9198 37.9434L39.9364 37.9962C40.0976 38.5434 39.9478 39.137 39.5424 39.5424C39.137 39.9478 38.5434 40.0975 37.9963 39.9364L37.9435 39.9198L33.499 38.4383C31.7259 39.4182 29.688 40 27.5 40C22.3216 40 17.8821 36.8514 15.9848 32.3704C15.6484 31.5757 16.0199 30.6588 16.8145 30.3223C17.6092 29.9859 18.5261 30.3573 18.8626 31.152C20.2878 34.5181 23.6205 36.875 27.5 36.875C29.3266 36.875 31.0254 36.3308 32.4835 35.4099L32.5209 35.387C32.9102 35.1562 33.3812 35.1052 33.8119 35.2487L35.9671 35.967L35.2488 33.8119C35.1006 33.3673 35.1597 32.8797 35.41 32.4834L35.4528 32.4149C36.3477 30.9722 36.875 29.298 36.875 27.5ZM25 14.0625C25 8.02177 20.1033 3.125 14.0625 3.125C8.02181 3.125 3.12503 8.02177 3.12503 14.0625C3.12503 16.1957 3.76065 18.1781 4.83387 19.8774C5.0841 20.2736 5.14327 20.7612 4.99507 21.2058L4.03301 24.092L6.91944 23.13L6.96125 23.1167C7.39446 22.9856 7.86415 23.0488 8.24802 23.2912L8.32782 23.3412C10.0089 24.3841 11.9627 25 14.0625 25C20.1032 25 25 20.103 25 14.0625ZM28.125 14.0625C28.125 21.8289 21.8292 28.125 14.0625 28.125C11.567 28.125 9.24456 27.4523 7.22919 26.3206L2.05661 28.0448C1.49515 28.232 0.876126 28.0858 0.457645 27.6673C0.0391915 27.2488 -0.106918 26.6299 0.0802185 26.0684L1.80431 20.8959C0.672673 18.8804 3.35376e-05 16.558 3.35376e-05 14.0625C3.35376e-05 6.29588 6.29592 0 14.0625 0C21.8291 0 28.125 6.29588 28.125 14.0625Z" fill="#F7BC35"/>
</g>
<defs>
<clipPath id="clip0_155_262">
<rect width="40" height="40" fill="white"/>
</clipPath>
</defs>
</svg>
