<svg width="34" height="34" viewBox="0 0 34 34" fill="none" xmlns="http://www.w3.org/2000/svg">
<path d="M26.9999 3.25H24.9166V2C24.9166 1.66848 24.7849 1.35054 24.5504 1.11612C24.316 0.881696 23.9981 0.75 23.6666 0.75C23.335 0.75 23.0171 0.881696 22.7827 1.11612C22.5483 1.35054 22.4166 1.66848 22.4166 2V3.25H11.5832V2C11.5832 1.66848 11.4515 1.35054 11.2171 1.11612C10.9827 0.881696 10.6648 0.75 10.3332 0.75C10.0017 0.75 9.68377 0.881696 9.44935 1.11612C9.21493 1.35054 9.08323 1.66848 9.08323 2V3.25H6.9999C6.15547 3.15213 5.29983 3.24646 4.497 3.52595C3.69418 3.80543 2.96493 4.26283 2.36383 4.86393C1.76273 5.46504 1.30533 6.19428 1.02584 6.99711C0.746359 7.79993 0.652025 8.65557 0.749898 9.5V27C0.652025 27.8444 0.746359 28.7001 1.02584 29.5029C1.30533 30.3057 1.76273 31.035 2.36383 31.6361C2.96493 32.2372 3.69418 32.6946 4.497 32.9741C5.29983 33.2535 6.15547 33.3479 6.9999 33.25H26.9999C27.8443 33.3479 28.7 33.2535 29.5028 32.9741C30.3056 32.6946 31.0349 32.2372 31.636 31.6361C32.2371 31.035 32.6945 30.3057 32.974 29.5029C33.2534 28.7001 33.3478 27.8444 33.2499 27V9.5C33.3478 8.65557 33.2534 7.79993 32.974 6.99711C32.6945 6.19428 32.2371 5.46504 31.636 4.86393C31.0349 4.26283 30.3056 3.80543 29.5028 3.52595C28.7 3.24646 27.8443 3.15213 26.9999 3.25ZM6.9999 5.75H9.08323V7C9.08323 7.33152 9.21493 7.64946 9.44935 7.88388C9.68377 8.1183 10.0017 8.25 10.3332 8.25C10.6648 8.25 10.9827 8.1183 11.2171 7.88388C11.4515 7.64946 11.5832 7.33152 11.5832 7V5.75H22.4166V7C22.4166 7.33152 22.5483 7.64946 22.7827 7.88388C23.0171 8.1183 23.335 8.25 23.6666 8.25C23.9981 8.25 24.316 8.1183 24.5504 7.88388C24.7849 7.64946 24.9166 7.33152 24.9166 7V5.75H26.9999C29.6282 5.75 30.7499 6.87167 30.7499 9.5V10.75H3.2499V9.5C3.2499 6.87167 4.37156 5.75 6.9999 5.75ZM26.9999 30.75H6.9999C4.37156 30.75 3.2499 29.6283 3.2499 27V13.25H30.7499V27C30.7499 29.6283 29.6282 30.75 26.9999 30.75ZM22.0499 18.3333C22.1661 18.4494 22.2582 18.5872 22.3211 18.739C22.3839 18.8907 22.4163 19.0533 22.4163 19.2175C22.4163 19.3817 22.3839 19.5443 22.3211 19.696C22.2582 19.8477 22.1661 19.9856 22.0499 20.1017L16.4999 25.6667C16.3841 25.783 16.2464 25.8753 16.0948 25.9382C15.9432 26.0012 15.7807 26.0336 15.6166 26.0336C15.4524 26.0336 15.2899 26.0012 15.1383 25.9382C14.9867 25.8753 14.8491 25.783 14.7332 25.6667L11.9499 22.8833C11.7291 22.6464 11.6089 22.333 11.6146 22.0091C11.6203 21.6853 11.7515 21.3763 11.9805 21.1473C12.2096 20.9183 12.5185 20.7871 12.8424 20.7814C13.1662 20.7757 13.4796 20.8959 13.7166 21.1167L15.6116 23.01L20.2782 18.3433C20.3936 18.2258 20.5311 18.1323 20.6828 18.0681C20.8344 18.004 20.9973 17.9705 21.162 17.9696C21.3267 17.9686 21.4899 18.0003 21.6423 18.0627C21.7947 18.1252 21.9332 18.2171 22.0499 18.3333Z" fill="#F7BC35"/>
</svg>
