<svg width="40" height="38" viewBox="0 0 40 38" fill="none" xmlns="http://www.w3.org/2000/svg">
<path d="M13.6974 15.0341V23.1051L13.697 23.1698C13.6624 25.9047 11.4346 28.111 8.69148 28.111C5.92677 28.111 3.68563 25.8698 3.68561 23.1052V18.9968C3.68561 16.8082 5.45982 15.0341 7.64839 15.0341H13.6974ZM17.383 0.565918V13.0322H5.50148L0 16.4696V0.565918H17.383ZM40 0.565918V16.4696L34.4985 13.0322H22.617V0.565918H40ZM2.33917 12.2498L4.83086 10.693H15.0439V2.90509H2.33917V12.2498ZM24.9561 10.693H35.1691L37.6608 12.2498V2.90509H24.9561V10.693ZM12.528 5.62947V7.96864H4.85504V5.62947H12.528ZM35.145 5.62947V7.96864H27.472V5.62947H35.145ZM6.02478 23.1052C6.0248 24.5779 7.2187 25.7718 8.69148 25.7718C10.1643 25.7718 11.3582 24.5779 11.3582 23.1052V17.3732H7.64839C6.75172 17.3732 6.02478 18.1001 6.02478 18.9968V23.1052Z" fill="#F7BC35"/>
<path d="M15.0437 31.4733C15.0437 29.6164 13.5384 28.1111 11.6815 28.1111H9.86125V32.4977H7.52208V28.1111H5.70186C3.84496 28.1111 2.33966 29.6164 2.33966 31.4733V35.0947H15.0437V31.4733ZM33.8974 18.9969C33.8973 18.1002 33.1705 17.3734 32.2738 17.3734H28.564V23.1053C28.564 24.5781 29.7579 25.772 31.2307 25.772C32.7035 25.772 33.8974 24.5781 33.8974 23.1053V18.9969ZM11.3584 17.9899V16.2038H13.6975V17.9899C13.6975 20.3884 11.7531 22.3328 9.35458 22.3328H4.85538V19.9937H9.35458C10.4612 19.9937 11.3584 19.0965 11.3584 17.9899ZM17.3828 37.4339H0.000488281V31.4733C0.000488281 28.3245 2.55306 25.7719 5.70186 25.7719H11.6815C14.8303 25.7719 17.3828 28.3245 17.3828 31.4733V37.4339ZM36.2366 23.1053C36.2366 25.8699 33.9954 28.1112 31.2307 28.1112C28.466 28.1112 26.2249 25.8699 26.2249 23.1053V15.0342H32.2738C34.4624 15.0342 36.2366 16.8083 36.2366 18.9969V23.1053Z" fill="#F7BC35"/>
<path d="M37.5827 31.4732C37.5827 29.6163 36.0774 28.111 34.2205 28.111H32.4003V32.4976H30.0611V28.111H28.2409C26.384 28.111 24.8787 29.6163 24.8787 31.4732V35.0945H37.5827V31.4732ZM26.2249 17.9897V16.2036H28.564V17.9897C28.564 19.0964 29.4612 19.9935 30.5678 19.9935H35.067V22.3327H30.5678C28.1693 22.3327 26.2249 20.3883 26.2249 17.9897ZM39.9219 37.4337H22.5396V31.4732C22.5396 28.3244 25.0921 25.7718 28.2409 25.7718H34.2205C37.3693 25.7718 39.9219 28.3244 39.9219 31.4732V37.4337Z" fill="#F7BC35"/>
</svg>
