<svg width="38" height="40" viewBox="0 0 38 40" fill="none" xmlns="http://www.w3.org/2000/svg">
<path d="M28.7473 38.8724H18.0568C17.3498 38.8724 16.7635 38.2471 16.7635 37.493C16.7635 36.7389 17.3498 36.1136 18.0568 36.1136H28.7473C30.5923 36.1136 32.4028 34.4765 32.7132 32.5269L35.0065 17.8867C35.2134 16.5625 34.5238 14.6679 33.5582 13.8402L21.6088 3.651C20.2293 2.47389 17.9361 2.47387 16.5739 3.63259L4.62462 13.8402C3.64178 14.6863 2.96931 16.5625 3.17622 17.8867L3.65902 20.9949C3.77972 21.7489 3.29694 22.4662 2.58998 22.5766C1.88303 22.7237 1.22782 22.1904 1.10712 21.4363L0.624316 18.3465C0.262217 16.0659 1.2968 13.1415 3.00384 11.6885L14.9531 1.48061C17.2636 -0.505767 20.9018 -0.487356 23.2296 1.49902L35.1789 11.6885C36.8687 13.1415 37.9033 16.0659 37.5584 18.3465L35.2651 32.9867C34.7478 36.2421 31.8338 38.8724 28.7473 38.8724Z" fill="#F7BC35"/>
<path d="M7.0226 39.2219C6.31564 39.2219 5.74663 38.6149 5.72938 37.8792C5.67766 35.3963 4.14306 33.7593 1.81528 33.7042C1.10832 33.6858 0.539291 33.0604 0.556534 32.288C0.573777 31.5339 1.14279 30.9453 1.84975 30.9453H1.88422C5.59142 31.0373 8.24684 33.8513 8.31581 37.8057C8.33305 38.5597 7.76402 39.2035 7.05706 39.2219C7.03982 39.2219 7.03984 39.2219 7.0226 39.2219Z" fill="#F7BC35"/>
<path d="M12.1954 39.222C11.4885 39.222 10.9022 38.6151 10.9022 37.861C10.885 36.6471 10.6953 35.4884 10.3504 34.4032C9.47105 31.7179 7.59158 29.7314 5.07413 28.775C4.0568 28.3887 2.9705 28.1866 1.83248 28.1866C1.12552 28.1866 0.53928 27.5612 0.556523 26.7888C0.556523 26.0347 1.14278 25.4277 1.84974 25.4277H1.86698C3.29813 25.4461 4.6603 25.7036 5.93627 26.1818C9.19517 27.4141 11.6264 30.0074 12.7817 33.4836C13.23 34.8446 13.4714 36.316 13.4886 37.8242C13.4886 38.5967 12.9196 39.222 12.1954 39.222Z" fill="#F7BC35"/>
<path d="M1.84928 39.6814C0.883685 39.6814 0.125 38.8537 0.125 37.8422C0.125 36.8306 0.900927 36.0029 1.84928 36.0029C2.79764 36.0029 3.57357 36.8306 3.57357 37.8422C3.57357 38.8537 2.81488 39.6814 1.84928 39.6814Z" fill="#F7BC35"/>
</svg>
