<svg width="40" height="34" viewBox="0 0 40 34" fill="none" xmlns="http://www.w3.org/2000/svg">
<path d="M34.1406 17.9495H30.2252C29.6923 17.9495 29.1763 18.0223 28.6853 18.1562C27.7167 16.2521 25.7392 14.9438 23.4605 14.9438H16.5395C14.2608 14.9438 12.2833 16.2521 11.3147 18.1562C10.8129 18.0191 10.295 17.9495 9.77484 17.9495H5.85938C2.62852 17.9495 0 20.578 0 23.8088V30.0681C0 32.0066 1.57711 33.5837 3.51562 33.5837H36.4844C38.4229 33.5837 40 32.0066 40 30.0681V23.8088C40 20.578 37.3715 17.9495 34.1406 17.9495ZM10.6801 20.8034V31.24H3.51562C2.86945 31.24 2.34375 30.7143 2.34375 30.0681V23.8089C2.34375 21.8704 3.92086 20.2933 5.85938 20.2933H9.77484C10.093 20.2933 10.401 20.3365 10.6943 20.4161C10.6853 20.545 10.6806 20.6742 10.6801 20.8034ZM26.9762 31.24H13.0238V20.8033C13.0238 18.8648 14.6009 17.2877 16.5395 17.2877H23.4605C25.3991 17.2877 26.9762 18.8648 26.9762 20.8033V31.24ZM37.6562 30.0681C37.6562 30.7143 37.1305 31.24 36.4844 31.24H29.3199V20.8033C29.3194 20.6741 29.3147 20.5449 29.3057 20.416C29.6054 20.3346 29.9146 20.2933 30.2252 20.2932H34.1406C36.0791 20.2932 37.6562 21.8703 37.6562 23.8088V30.0681Z" fill="#F7BC35"/>
<path d="M7.81707 6.8833C4.94605 6.8833 2.61035 9.219 2.61035 12.09C2.61027 14.961 4.94605 17.2967 7.81707 17.2967C10.688 17.2967 13.0238 14.961 13.0238 12.09C13.0238 9.219 10.6881 6.8833 7.81707 6.8833ZM7.81699 14.953C6.23832 14.953 4.95402 13.6687 4.95402 12.09C4.95402 10.5113 6.23832 9.22705 7.81699 9.22705C9.39566 9.22705 10.68 10.5113 10.68 12.09C10.68 13.6687 9.39566 14.953 7.81699 14.953ZM19.9999 0.416504C16.1643 0.416504 13.0438 3.53697 13.0438 7.3726C13.0438 11.2082 16.1643 14.3287 19.9999 14.3287C23.8355 14.3287 26.956 11.2082 26.956 7.3726C26.956 3.53705 23.8355 0.416504 19.9999 0.416504ZM19.9999 11.9849C17.4566 11.9849 15.3875 9.91588 15.3875 7.3726C15.3875 4.82939 17.4566 2.76025 19.9999 2.76025C22.5432 2.76025 24.6122 4.82932 24.6122 7.3726C24.6122 9.91588 22.5432 11.9849 19.9999 11.9849ZM32.1827 6.8833C29.3118 6.8833 26.976 9.219 26.976 12.09C26.9761 14.961 29.3118 17.2967 32.1827 17.2967C35.0537 17.2967 37.3894 14.961 37.3894 12.09C37.3894 9.219 35.0537 6.8833 32.1827 6.8833ZM32.1827 14.953C30.6041 14.953 29.3197 13.6687 29.3197 12.09C29.3198 10.5113 30.6041 9.22705 32.1827 9.22705C33.7614 9.22705 35.0457 10.5113 35.0457 12.09C35.0457 13.6687 33.7614 14.953 32.1827 14.953Z" fill="#F7BC35"/>
</svg>
